<svg xmlns="http://www.w3.org/2000/svg" width="256" height="256" viewBox="0 0 100 100"><rect width="100" height="100" rx="50" fill="#f2cb05"></rect><path d="M24.03 28.30L19.27 28.30L19.27 25.50L35.93 25.50L49.86 71.70L53.36 71.70L53.36 74.50L35.30 74.50L35.30 71.70L39.36 71.70L36.77 63.09L17.73 63.09L15.21 71.70L19.27 71.70L19.27 74.50L7.44 74.50L7.44 71.70L10.94 71.70L24.03 28.30ZM35.79 59.94L27.18 31.31L18.71 59.94L35.79 59.94ZM62.46 28.30L58.26 28.30L58.26 25.50L77.16 25.50L77.16 28.30L72.96 28.30L72.96 71.70L77.86 71.70Q82.48 71.70 84.20 70.79Q85.91 69.88 86.54 66.73L86.54 66.73L87.94 59.80L90.67 59.80L92.56 71.56Q92.56 72.96 91.93 73.63Q91.30 74.29 90.56 74.39Q89.83 74.50 88.29 74.50L88.29 74.50L58.26 74.50L58.26 71.70L62.46 71.70L62.46 28.30Z" fill="#0d1d23"></path></svg>